<svg xmlns="http://www.w3.org/2000/svg" viewBox="0 0 174.77 164.84"><defs><style>.cls-1{fill:#17aa9d;}.cls-2{fill:#1b1464;}</style></defs><g id="Layer_2" data-name="Layer 2"><g id="Layer_1-2" data-name="Layer 1"><g id="Icon_SVG" data-name="Icon SVG"><path class="cls-1" d="M159.12,141.38l-36.25-35.92,8.79-8.87,36.25,35.92a4,4,0,0,1,0,5.69l-3.12,3.15A4,4,0,0,1,159.12,141.38Z"/><path class="cls-2" d="M115.79,51.85V83.11a2.32,2.32,0,0,1-2.32,2.33H100.54a2.32,2.32,0,0,1-2.32-2.33V67.63a2.33,2.33,0,0,0-2.33-2.33H86.42a2.33,2.33,0,0,0-2.32,2.33V83.11a2.33,2.33,0,0,1-2.33,2.33H68.85a2.33,2.33,0,0,1-2.33-2.33V51.85a2.35,2.35,0,0,1,1-1.9L89.81,34.16a2.33,2.33,0,0,1,2.69,0L114.81,50A2.33,2.33,0,0,1,115.79,51.85Z"/><path class="cls-1" d="M158,0a16.61,16.61,0,0,0-16.47,19.7,4.65,4.65,0,0,1-1.78,4.65l-3.4,2.47a4.59,4.59,0,0,1-5.94-.47,55.8,55.8,0,0,0-85.34,8.18,6.17,6.17,0,0,1-7.6,2.18L26.74,32a6,6,0,0,1-3.5-4.18,11.71,11.71,0,1,0-5.76,12.64A6.24,6.24,0,0,1,23,40.14l10.7,4.72A6.17,6.17,0,0,1,37.23,52,54.48,54.48,0,0,0,35.6,65.29,55.21,55.21,0,0,0,72,117a3.91,3.91,0,0,1,2.48,4.5l-.72,3.34a3.88,3.88,0,0,1-3.12,3,18.74,18.74,0,1,0,13.56,2.88,4,4,0,0,1-1.64-4.16l.7-3.27a3.92,3.92,0,0,1,4.09-3.09c1.25.08,2.51.13,3.78.13,30.63,0,55.56-24.72,55.56-55.1a54.39,54.39,0,0,0-6.3-25.45A4.58,4.58,0,0,1,141.77,34l3.37-2.46a4.58,4.58,0,0,1,4.89-.32,16.79,16.79,0,0,0,24.74-14.6A16.69,16.69,0,0,0,158,0ZM91.16,111.41c-25.69,0-46.59-20.69-46.59-46.12s20.9-46.12,46.59-46.12,46.59,20.69,46.59,46.12S116.85,111.41,91.16,111.41Z"/></g></g></g></svg>