<svg width="24" height="24" viewBox="0 0 24 24" fill="none" xmlns="http://www.w3.org/2000/svg">
<g opacity="0.8">
<path d="M9.001 17.77C9.21967 17.77 9.40233 17.696 9.549 17.548C9.69567 17.4 9.769 17.2167 9.769 16.998C9.769 16.7793 9.69533 16.597 9.548 16.451C9.40067 16.305 9.21733 16.2317 8.998 16.231C8.77867 16.2303 8.59633 16.304 8.451 16.452C8.30567 16.6 8.23233 16.7833 8.231 17.002C8.22967 17.2207 8.30333 17.403 8.452 17.549C8.60067 17.695 8.784 17.7683 9.002 17.769M12.002 17.769C12.22 17.769 12.4023 17.6953 12.549 17.548C12.6957 17.4007 12.769 17.2173 12.769 16.998C12.769 16.7787 12.6953 16.5963 12.548 16.451C12.4007 16.3057 12.2173 16.2323 11.998 16.231C11.7787 16.2297 11.5963 16.3033 11.451 16.452C11.3057 16.6007 11.2323 16.784 11.231 17.002C11.2297 17.22 11.3033 17.4023 11.452 17.549C11.6007 17.6957 11.784 17.769 12.002 17.769ZM15.002 17.769C15.22 17.769 15.4023 17.6953 15.549 17.548C15.6957 17.4007 15.769 17.2173 15.769 16.998C15.769 16.7787 15.6953 16.5963 15.548 16.451C15.4007 16.3057 15.2173 16.2323 14.998 16.231C14.7787 16.2297 14.5963 16.3033 14.451 16.452C14.3057 16.6007 14.2323 16.784 14.231 17.002C14.2297 17.22 14.3033 17.4023 14.452 17.549C14.6007 17.6957 14.784 17.769 15.002 17.769ZM9.002 14.769C9.22 14.769 9.40233 14.6953 9.549 14.548C9.69567 14.4007 9.769 14.2173 9.769 13.998C9.769 13.7787 9.69533 13.5963 9.548 13.451C9.40067 13.3057 9.21733 13.2323 8.998 13.231C8.77867 13.2297 8.59633 13.3033 8.451 13.452C8.30567 13.6007 8.23233 13.784 8.231 14.002C8.22967 14.22 8.30333 14.4023 8.452 14.549C8.60067 14.6957 8.784 14.769 9.002 14.769ZM12.002 14.769C12.22 14.769 12.4023 14.6953 12.549 14.548C12.6957 14.4007 12.769 14.2173 12.769 13.998C12.769 13.7787 12.6953 13.5963 12.548 13.451C12.4007 13.3057 12.2173 13.2323 11.998 13.231C11.7787 13.2297 11.5963 13.3033 11.451 13.452C11.3057 13.6007 11.2323 13.784 11.231 14.002C11.2297 14.22 11.3033 14.4023 11.452 14.549C11.6007 14.6957 11.784 14.769 12.002 14.769ZM15.002 14.769C15.22 14.769 15.4023 14.6953 15.549 14.548C15.6957 14.4007 15.769 14.2173 15.769 13.998C15.769 13.7787 15.6953 13.5963 15.548 13.451C15.4007 13.3057 15.2173 13.2323 14.998 13.231C14.7787 13.2297 14.5963 13.3033 14.451 13.452C14.3057 13.6007 14.2323 13.784 14.231 14.002C14.2297 14.22 14.3033 14.4023 14.452 14.549C14.6007 14.6957 14.784 14.769 15.002 14.769ZM12 6.616C10.86 6.616 9.87333 7.00067 9.04 7.77C8.20667 8.53933 7.73833 9.488 7.635 10.616C7.609 10.8347 7.67533 11.0177 7.834 11.165C7.99267 11.3117 8.189 11.385 8.423 11.385H15.577C15.811 11.385 16.0073 11.3117 16.166 11.165C16.3247 11.0183 16.3913 10.835 16.366 10.615C16.2633 9.48833 15.795 8.54 14.961 7.77C14.127 7 13.14 6.61533 12 6.616ZM12 7.5C12.8833 7.5 13.646 7.78767 14.288 8.363C14.93 8.93833 15.3173 9.65067 15.45 10.5H8.55C8.68333 9.65 9.071 8.93767 9.713 8.363C10.355 7.78833 11.1173 7.50067 12 7.5ZM4.616 21C4.15533 21 3.771 20.846 3.463 20.538C3.155 20.23 3.00067 19.8457 3 19.385V4.615C3 4.155 3.15433 3.771 3.463 3.463C3.77167 3.155 4.15567 3.00067 4.615 3H19.385C19.845 3 20.229 3.15433 20.537 3.463C20.845 3.77167 20.9993 4.156 21 4.616V19.385C21 19.845 20.8457 20.2293 20.537 20.538C20.2283 20.8467 19.8443 21.0007 19.385 21H4.616ZM4.616 20H19.385C19.5383 20 19.6793 19.936 19.808 19.808C19.9367 19.68 20.0007 19.5387 20 19.384V4.616C20 4.462 19.936 4.32067 19.808 4.192C19.68 4.06333 19.539 3.99933 19.385 4H4.615C4.46167 4 4.32067 4.064 4.192 4.192C4.06333 4.32 3.99933 4.461 4 4.615V19.385C4 19.5383 4.064 19.6793 4.192 19.808C4.32 19.9367 4.461 20.0007 4.615 20" fill="#323232"/>
</g>
</svg>
