<svg width="22" height="22" viewBox="0 0 22 22" fill="none" xmlns="http://www.w3.org/2000/svg">
<g opacity="0.8">
<path d="M5.148 15.0902H5.95833V13.6446H16.0417V15.0902H16.8529V11.9488C16.8529 11.7104 16.7918 11.4614 16.6696 11.2017C16.5474 10.9419 16.3793 10.7348 16.1654 10.5802V9.0255C16.1654 8.60383 16.0239 8.25153 15.741 7.96858C15.4581 7.68564 15.1057 7.54447 14.6841 7.54508H12.023C11.7841 7.54508 11.5793 7.58847 11.4088 7.67525C11.2383 7.76264 11.1021 7.8815 11 8.03183C10.8979 7.8815 10.7617 7.76264 10.5912 7.67525C10.4207 7.58847 10.2159 7.54508 9.977 7.54508H7.31683C6.89517 7.54508 6.54286 7.68625 6.25992 7.96858C5.97697 8.25092 5.83581 8.60322 5.83642 9.0255V10.5802C5.62253 10.7354 5.45447 10.9426 5.33225 11.2017C5.21003 11.4608 5.14892 11.7098 5.14892 11.9488L5.148 15.0902ZM5.95833 12.8333V11.9167C5.95833 11.6569 6.04633 11.4394 6.22233 11.264C6.39833 11.0886 6.61589 11.0006 6.875 11H15.125C15.3847 11 15.6026 11.088 15.7786 11.264C15.9546 11.44 16.0423 11.6576 16.0417 11.9167V12.8333H5.95833ZM6.64583 10.1897V8.91917C6.64583 8.75417 6.69869 8.61911 6.80442 8.514C6.91014 8.40828 7.0455 8.35542 7.2105 8.35542H10.0302C10.1952 8.35542 10.3302 8.40828 10.4353 8.514C10.5417 8.61972 10.5948 8.75478 10.5948 8.91917V10.1887L6.64583 10.1897ZM11.4052 10.1897V8.91917C11.4052 8.75417 11.4583 8.61911 11.5647 8.514C11.6704 8.40828 11.8054 8.35542 11.9698 8.35542H14.7904C14.9548 8.35542 15.0899 8.40828 15.1956 8.514C15.3013 8.61972 15.3542 8.75478 15.3542 8.91917V10.1887L11.4052 10.1897ZM4.23133 19.25C3.80906 19.25 3.45675 19.1088 3.17442 18.8265C2.89208 18.5442 2.75061 18.1919 2.75 17.7696V4.23042C2.75 3.80875 2.89147 3.45675 3.17442 3.17442C3.45736 2.89208 3.80936 2.75061 4.23042 2.75H17.7696C18.1913 2.75 18.5433 2.89147 18.8256 3.17442C19.1079 3.45736 19.2494 3.80967 19.25 4.23133V17.7696C19.25 18.1913 19.1085 18.5436 18.8256 18.8265C18.5426 19.1094 18.1906 19.2506 17.7696 19.25H4.23133ZM4.23133 18.3333H17.7696C17.9101 18.3333 18.0394 18.2747 18.1573 18.1573C18.2753 18.04 18.3339 17.9104 18.3333 17.7687V4.23133C18.3333 4.09017 18.2747 3.96061 18.1573 3.84267C18.04 3.72472 17.9108 3.66606 17.7696 3.66667H4.23042C4.08986 3.66667 3.96061 3.72533 3.84267 3.84267C3.72472 3.96 3.66606 4.08925 3.66667 4.23042V17.7696C3.66667 17.9101 3.72533 18.0394 3.84267 18.1573C3.96 18.2753 4.08925 18.3339 4.23042 18.3333" fill="#323232"/>
</g>
</svg>
