<svg width="20" height="18" viewBox="0 0 20 20" fill="none" xmlns="http://www.w3.org/2000/svg">
<path d="M8.77496 16.8234L5.44063 13.6082L6.28063 12.7982L8.77496 15.2046L13.7205 10.4357L14.5593 11.2457L8.77496 16.8234ZM2.55196 20.6259C2.01451 20.6259 1.56613 20.4527 1.20679 20.1062C0.847459 19.7597 0.667404 19.3273 0.666626 18.8091V4.44281C0.666626 3.92531 0.846681 3.49331 1.20679 3.14681C1.5669 2.80031 2.01529 2.62669 2.55196 2.62594H4.61579V0.117188H5.87229V2.62594H14.2186V0.117188H15.3853V2.62594H17.4491C17.9858 2.62594 18.4342 2.79956 18.7943 3.14681C19.1544 3.49406 19.3341 3.92644 19.3333 4.44394V18.8091C19.3333 19.3266 19.1536 19.7589 18.7943 20.1062C18.435 20.4534 17.9862 20.6267 17.448 20.6259H2.55196ZM2.55196 19.5009H17.4491C17.628 19.5009 17.7925 19.4289 17.9426 19.2849C18.0927 19.1409 18.1674 18.9819 18.1666 18.8079V8.94394H1.83329V18.8091C1.83329 18.9816 1.90796 19.1402 2.05729 19.2849C2.20663 19.4297 2.37113 19.5017 2.55079 19.5009M1.83329 7.81781H18.1666V4.44281C18.1666 4.27031 18.092 4.11169 17.9426 3.96694C17.7933 3.82219 17.6284 3.75019 17.448 3.75094H2.55196C2.37229 3.75094 2.2074 3.82294 2.05729 3.96694C1.90718 4.11094 1.83251 4.26994 1.83329 4.44394V7.81781Z" fill="#323232"/>
</svg>
