<svg width="17" height="17" viewBox="0 0 17 17" fill="none" xmlns="http://www.w3.org/2000/svg">
<path d="M8.49999 3.54102L14.1667 3.54102M2.83332 13.4577L4.95832 13.4577M2.83332 3.54102L5.66666 3.54102M7.79166 13.4577L14.1667 13.4577M12.0417 8.49935L14.1667 8.49935M2.83332 8.49935L9.20832 8.49935" stroke="#323232" stroke-linecap="round"/>
<path d="M5.66667 3.54167C5.66667 4.32407 6.30093 4.95833 7.08333 4.95833C7.86574 4.95833 8.5 4.32407 8.5 3.54167C8.5 2.75926 7.86574 2.125 7.08333 2.125C6.30093 2.125 5.66667 2.75926 5.66667 3.54167Z" stroke="#323232" stroke-linecap="round"/>
<path d="M9.20832 8.50065C9.20832 9.28305 9.84259 9.91732 10.625 9.91732C11.4074 9.91732 12.0417 9.28305 12.0417 8.50065C12.0417 7.71825 11.4074 7.08398 10.625 7.08398C9.84259 7.08398 9.20832 7.71825 9.20832 8.50065Z" stroke="#323232" stroke-linecap="round"/>
<path d="M4.95832 13.4577C4.95832 14.2401 5.59259 14.8743 6.37499 14.8743C7.15739 14.8743 7.79166 14.2401 7.79166 13.4577C7.79166 12.6753 7.15739 12.041 6.37499 12.041C5.59259 12.041 4.95832 12.6753 4.95832 13.4577Z" stroke="#323232" stroke-linecap="round"/>
</svg>
