<svg width="20" height="20" viewBox="0 0 20 20" fill="none" xmlns="http://www.w3.org/2000/svg">
<g opacity="0.8" clip-path="url(#clip0_2989_10263)">
<path d="M17.5 9.58268C17.5 5.85102 17.5 3.98435 16.3409 2.82518C15.1817 1.66602 13.3159 1.66602 9.58335 1.66602C5.85169 1.66602 3.98502 1.66602 2.82585 2.82518C1.66669 3.98435 1.66669 5.85018 1.66669 9.58268C1.66669 13.3143 1.66669 15.181 2.82585 16.3402C3.94169 17.4552 5.71085 17.4977 9.16669 17.4985M1.66669 5.83268H17.5M8.33335 13.3327H9.58335M5.00002 13.3327H5.83335M8.33335 9.99935H13.3334M5.00002 9.99935H5.83335M17.7192 12.3927C16.9692 11.5535 16.5175 11.6035 16.0175 11.7535C15.6675 11.8035 14.465 13.201 13.965 13.646C13.1425 14.456 12.3175 15.2893 12.2625 15.3977C12.1067 15.6502 11.9625 16.0977 11.8925 16.596C11.7617 17.3452 11.5034 18.151 11.8125 18.2602C11.9625 18.4602 12.7125 18.1935 13.4642 18.0843C13.9642 17.9943 14.315 17.8943 14.5659 17.7443C14.9159 17.5352 15.5667 16.796 16.6884 15.6977C17.3917 14.9593 18.07 14.4493 18.27 13.9502C18.47 13.201 18.17 12.8018 17.72 12.3918" stroke="#323232" stroke-width="1.5" stroke-linecap="round" stroke-linejoin="round"/>
</g>
<defs>
<clipPath id="clip0_2989_10263">
<rect width="20" height="20" fill="white"/>
</clipPath>
</defs>
</svg>
