<svg width="17" height="17" viewBox="0 0 17 17" fill="none" xmlns="http://www.w3.org/2000/svg">
<path d="M6.73597 6.09623L6.72414 2.03549C6.71907 1.80824 6.53092 1.67296 6.30367 1.66762L6.01511 1.66735C5.78757 1.66229 5.60757 1.86027 5.61236 2.08724L5.62811 4.81621L0.947544 0.180367C0.727888 -0.0392891 0.371825 -0.0392891 0.152169 0.180367C-0.0674873 0.400023 -0.0674873 0.756086 0.152169 0.975742L4.81248 5.5919L2.15664 5.59893C1.92939 5.59388 1.71873 5.7508 1.68414 6.01857L1.6847 6.30713C1.69033 6.53467 1.87822 6.72282 2.10517 6.72788L6.13944 6.71018C6.14394 6.71045 6.14675 6.71212 6.15069 6.71212L6.35628 6.71691C6.46962 6.72001 6.572 6.67557 6.64456 6.60187C6.71853 6.52904 6.74497 6.42696 6.74272 6.31304L6.72052 6.10717C6.72078 6.10323 6.73598 6.10013 6.73598 6.09621L6.73597 6.09623ZM11.3552 6.60187C11.4278 6.67527 11.5301 6.72006 11.6435 6.71697L11.8491 6.71217C11.853 6.71217 11.8558 6.71076 11.8603 6.7102L15.8946 6.72792C16.1218 6.72286 16.3097 6.5347 16.315 6.30715L16.3156 6.01859C16.281 5.75056 16.0704 5.5939 15.8431 5.59896L13.1873 5.59193L17.8476 0.975777C18.0672 0.756121 18.0672 0.400059 17.8476 0.180402C17.6279 -0.0392539 17.2719 -0.0392539 17.0522 0.180402L12.3719 4.81596L12.3874 2.08728C12.3927 1.86003 12.2124 1.66231 11.9849 1.66737L11.6964 1.66765C11.4685 1.673 11.2807 1.80828 11.2759 2.03553L11.2641 6.09621C11.2641 6.10013 11.2795 6.10295 11.2795 6.10718L11.2573 6.31304C11.2548 6.42725 11.2812 6.52906 11.3552 6.60188V6.60187ZM6.64484 11.3807C6.572 11.3073 6.4699 11.2628 6.35656 11.2656L6.15095 11.2707C6.14703 11.2707 6.14422 11.2724 6.1397 11.2726L2.10517 11.2549C1.87794 11.2603 1.69004 11.4482 1.6847 11.6754L1.68416 11.9642C1.71873 12.2317 1.92941 12.3889 2.15666 12.3836L4.81529 12.3906L0.152169 17.0245C-0.0674873 17.2442 -0.0674873 17.6002 0.152169 17.8199C0.371843 18.0395 0.727888 18.0395 0.947544 17.8199L5.62811 13.1691L5.61236 15.9127C5.60729 16.1402 5.78757 16.338 6.01511 16.3329L6.30367 16.3323C6.5312 16.3267 6.71936 16.1917 6.72414 15.9645L6.73597 11.9038C6.73597 11.8999 6.7205 11.8973 6.7205 11.8931L6.74272 11.6698C6.74523 11.5556 6.71883 11.4538 6.64484 11.3807ZM13.1847 12.3909L15.8434 12.3839C16.0706 12.3892 16.2813 12.232 16.3159 11.9645L16.3153 11.6757C16.3097 11.4481 16.1218 11.2602 15.8948 11.2552H11.8606C11.8561 11.2549 11.8533 11.2532 11.8493 11.2532L11.6086 11.2484C11.4952 11.2453 11.3926 11.3249 11.3203 11.3986C11.2463 11.4715 11.2199 11.5733 11.2221 11.6875L11.2444 11.8931C11.2444 11.8973 11.2289 11.8998 11.2289 11.9037L11.2407 15.9644C11.2458 16.1917 11.4337 16.3267 11.6612 16.3323L11.9675 16.3329C12.195 16.3379 12.375 16.1399 12.3699 15.9127L12.3545 13.1964L17.0525 17.8199C17.2721 18.0395 17.6282 18.0395 17.8478 17.8199C18.0675 17.6002 18.0675 17.2441 17.8478 17.0245L13.1847 12.3909Z" fill="#323232"/>
</svg>
